<svg width="21" height="18" viewBox="0 0 21 18" fill="none" xmlns="http://www.w3.org/2000/svg">
<mask id="path-1-inside-1_228_46" fill="white">
<path d="M15 0C13.0312 0 11.3194 0.887812 10.3125 2.37562C9.30562 0.887812 7.59375 0 5.625 0C4.13369 0.00173682 2.70396 0.594927 1.64944 1.64944C0.594927 2.70396 0.00173682 4.13369 0 5.625C0 8.3625 1.70625 11.2116 5.07187 14.0916C6.61412 15.4057 8.28002 16.5674 10.0463 17.5603C10.1281 17.6043 10.2196 17.6273 10.3125 17.6273C10.4054 17.6273 10.4969 17.6043 10.5787 17.5603C12.345 16.5674 14.0109 15.4057 15.5531 14.0916C18.9187 11.2116 20.625 8.3625 20.625 5.625C20.6233 4.13369 20.0301 2.70396 18.9756 1.64944C17.921 0.594927 16.4913 0.00173682 15 0ZM10.3125 16.4166C8.77406 15.5288 1.125 10.8488 1.125 5.625C1.12624 4.43191 1.60075 3.28803 2.44439 2.44439C3.28803 1.60075 4.43191 1.12624 5.625 1.125C7.52625 1.125 9.12281 2.14031 9.79219 3.77531C9.83457 3.87848 9.90666 3.96672 9.99931 4.02882C10.092 4.09092 10.201 4.12408 10.3125 4.12408C10.424 4.12408 10.533 4.09092 10.6257 4.02882C10.7183 3.96672 10.7904 3.87848 10.8328 3.77531C11.5022 2.14031 13.0987 1.125 15 1.125C16.1931 1.12624 17.337 1.60075 18.1806 2.44439C19.0243 3.28803 19.4988 4.43191 19.5 5.625C19.5 10.8488 11.8509 15.5288 10.3125 16.4166Z"/>
</mask>
<path d="M15 0C13.0312 0 11.3194 0.887812 10.3125 2.37562C9.30562 0.887812 7.59375 0 5.625 0C4.13369 0.00173682 2.70396 0.594927 1.64944 1.64944C0.594927 2.70396 0.00173682 4.13369 0 5.625C0 8.3625 1.70625 11.2116 5.07187 14.0916C6.61412 15.4057 8.28002 16.5674 10.0463 17.5603C10.1281 17.6043 10.2196 17.6273 10.3125 17.6273C10.4054 17.6273 10.4969 17.6043 10.5787 17.5603C12.345 16.5674 14.0109 15.4057 15.5531 14.0916C18.9187 11.2116 20.625 8.3625 20.625 5.625C20.6233 4.13369 20.0301 2.70396 18.9756 1.64944C17.921 0.594927 16.4913 0.00173682 15 0ZM10.3125 16.4166C8.77406 15.5288 1.125 10.8488 1.125 5.625C1.12624 4.43191 1.60075 3.28803 2.44439 2.44439C3.28803 1.60075 4.43191 1.12624 5.625 1.125C7.52625 1.125 9.12281 2.14031 9.79219 3.77531C9.83457 3.87848 9.90666 3.96672 9.99931 4.02882C10.092 4.09092 10.201 4.12408 10.3125 4.12408C10.424 4.12408 10.533 4.09092 10.6257 4.02882C10.7183 3.96672 10.7904 3.87848 10.8328 3.77531C11.5022 2.14031 13.0987 1.125 15 1.125C16.1931 1.12624 17.337 1.60075 18.1806 2.44439C19.0243 3.28803 19.4988 4.43191 19.5 5.625C19.5 10.8488 11.8509 15.5288 10.3125 16.4166Z" fill="white"/>
<path d="M15 0L15.0023 -2H15V0ZM10.3125 2.37562L8.65615 3.49656L10.3125 5.94408L11.9689 3.49656L10.3125 2.37562ZM5.625 0L5.625 -2L5.62267 -2L5.625 0ZM0 5.625L-2 5.62267V5.625L0 5.625ZM5.07187 14.0916L3.77154 15.6112L3.77472 15.6139L5.07187 14.0916ZM10.0463 17.5603L9.06616 19.3037L9.08278 19.3131L9.09958 19.3221L10.0463 17.5603ZM10.5787 17.5603L11.5254 19.3221L11.5422 19.3131L11.5588 19.3037L10.5787 17.5603ZM15.5531 14.0916L16.8503 15.6139L16.8535 15.6112L15.5531 14.0916ZM20.625 5.625L22.625 5.625L22.625 5.62267L20.625 5.625ZM10.3125 16.4166L9.31284 18.1488L10.3125 18.7257L11.3122 18.1488L10.3125 16.4166ZM1.125 5.625L-0.875 5.62292V5.625H1.125ZM5.625 1.125L5.625 -0.875001L5.62292 -0.874999L5.625 1.125ZM9.79219 3.77531L7.94129 4.53307L7.94219 4.53525L9.79219 3.77531ZM10.8328 3.77531L12.6828 4.53525L12.6837 4.53307L10.8328 3.77531ZM15 1.125L15.0021 -0.875H15V1.125ZM19.5 5.625L21.5 5.625L21.5 5.62292L19.5 5.625ZM15 -2C12.4175 -2 10.0623 -0.823072 8.65615 1.25469L11.9689 3.49656C12.5765 2.5987 13.645 2 15 2V-2ZM11.9689 1.25469C10.5627 -0.823072 8.20746 -2 5.625 -2V2C6.98004 2 8.04852 2.5987 8.65615 3.49656L11.9689 1.25469ZM5.62267 -2C3.60174 -1.99765 1.66425 -1.19379 0.235229 0.235229L3.06366 3.06366C3.74367 2.38364 4.66565 2.00112 5.62733 2L5.62267 -2ZM0.235229 0.235229C-1.19379 1.66425 -1.99765 3.60174 -2 5.62267L2 5.62733C2.00112 4.66565 2.38364 3.74367 3.06366 3.06366L0.235229 0.235229ZM-2 5.625C-2 9.22665 0.231057 12.5815 3.77155 15.6112L6.3722 12.572C3.18144 9.84161 2 7.49835 2 5.625L-2 5.625ZM3.77472 15.6139C5.41526 17.0118 7.18735 18.2475 9.06616 19.3037L11.0263 15.8169C9.37269 14.8873 7.81297 13.7996 6.36903 12.5693L3.77472 15.6139ZM9.09958 19.3221C9.47247 19.5224 9.88919 19.6273 10.3125 19.6273V15.6273C10.55 15.6273 10.7837 15.6861 10.9929 15.7985L9.09958 19.3221ZM10.3125 19.6273C10.7358 19.6273 11.1525 19.5224 11.5254 19.3221L9.63208 15.7985C9.84126 15.6861 10.075 15.6273 10.3125 15.6273V19.6273ZM11.5588 19.3037C13.4377 18.2475 15.2097 17.0118 16.8503 15.6139L14.256 12.5693C12.812 13.7996 11.2523 14.8873 9.59866 15.8169L11.5588 19.3037ZM16.8535 15.6112C20.3939 12.5815 22.625 9.22665 22.625 5.625H18.625C18.625 7.49835 17.4436 9.84161 14.2528 12.572L16.8535 15.6112ZM22.625 5.62267C22.6226 3.60174 21.8188 1.66425 20.3898 0.235229L17.5613 3.06366C18.2414 3.74367 18.6239 4.66565 18.625 5.62733L22.625 5.62267ZM20.3898 0.235229C18.9608 -1.19379 17.0233 -1.99765 15.0023 -2L14.9977 2C15.9594 2.00112 16.8813 2.38364 17.5613 3.06366L20.3898 0.235229ZM11.3122 14.6843C10.5953 14.2706 8.44269 12.9638 6.49509 11.1741C4.44366 9.28899 3.125 7.3273 3.125 5.625H-0.875C-0.875 9.14645 1.63087 12.1366 3.78858 14.1194C6.05013 16.1976 8.49129 17.6747 9.31284 18.1488L11.3122 14.6843ZM3.125 5.62708C3.12569 4.9637 3.38952 4.32769 3.8586 3.8586L1.03018 1.03018C-0.188031 2.24838 -0.873207 3.90011 -0.874999 5.62292L3.125 5.62708ZM3.8586 3.8586C4.32769 3.38952 4.9637 3.12569 5.62708 3.125L5.62292 -0.874999C3.90011 -0.873207 2.24838 -0.188031 1.03018 1.03018L3.8586 3.8586ZM5.625 3.125C6.79494 3.125 7.60898 3.72137 7.9413 4.53307L11.6431 3.01755C10.6366 0.559255 8.25756 -0.875 5.625 -0.875L5.625 3.125ZM7.94219 4.53525C8.13525 5.00525 8.46368 5.40723 8.88572 5.69013L11.1129 2.36752C11.3496 2.52621 11.5339 2.75171 11.6422 3.01538L7.94219 4.53525ZM8.88572 5.69013C9.30778 5.97303 9.8044 6.12408 10.3125 6.12408V2.12408C10.5975 2.12408 10.8761 2.20882 11.1129 2.36752L8.88572 5.69013ZM10.3125 6.12408C10.8206 6.12408 11.3172 5.97303 11.7393 5.69013L9.51211 2.36752C9.74887 2.20882 10.0275 2.12408 10.3125 2.12408V6.12408ZM11.7393 5.69013C12.1613 5.40723 12.4897 5.00525 12.6828 4.53525L8.98281 3.01538C9.09112 2.75171 9.27536 2.52621 9.51211 2.36752L11.7393 5.69013ZM12.6837 4.53307C13.016 3.72137 13.8301 3.125 15 3.125V-0.875C12.3674 -0.875 9.98836 0.559255 8.98192 3.01755L12.6837 4.53307ZM14.9979 3.125C15.6613 3.12569 16.2973 3.38952 16.7664 3.8586L19.5948 1.03018C18.3766 -0.188032 16.7249 -0.873207 15.0021 -0.874999L14.9979 3.125ZM16.7664 3.8586C17.2355 4.32768 17.4993 4.9637 17.5 5.62708L21.5 5.62292C21.4982 3.90012 20.813 2.24838 19.5948 1.03018L16.7664 3.8586ZM17.5 5.625C17.5 7.3273 16.1813 9.28899 14.1299 11.1741C12.1823 12.9638 10.0297 14.2706 9.31284 14.6843L11.3122 18.1488C12.1337 17.6747 14.5749 16.1976 16.8364 14.1194C18.9941 12.1366 21.5 9.14645 21.5 5.625H17.5Z" fill="white" mask="url(#path-1-inside-1_228_46)"/>
</svg>
