<svg width="21" height="21" viewBox="0 0 21 21" fill="none" xmlns="http://www.w3.org/2000/svg">
<path d="M19.7309 18.8412L16.0209 15.1353C17.461 13.3271 18.1584 11.0319 17.9697 8.72175C17.781 6.4116 16.7206 4.26205 15.0064 2.71509C13.2923 1.16814 11.0547 0.341358 8.75382 0.404762C6.45294 0.468166 4.26362 1.41693 2.63604 3.05597C1.00846 4.69502 0.0663314 6.89975 0.00337096 9.21684C-0.0595894 11.5339 0.761407 13.7872 2.29754 15.5135C3.83368 17.2397 5.9682 18.3076 8.2622 18.4976C10.5562 18.6876 12.8353 17.9853 14.6309 16.5351L18.3109 20.241C18.4039 20.3354 18.5145 20.4103 18.6363 20.4614C18.7582 20.5126 18.8889 20.5389 19.0209 20.5389C19.1529 20.5389 19.2836 20.5126 19.4055 20.4614C19.5273 20.4103 19.6379 20.3354 19.7309 20.241C19.9111 20.0532 20.0119 19.8023 20.0119 19.5411C20.0119 19.2799 19.9111 19.029 19.7309 18.8412ZM9.0209 16.5351C7.63643 16.5351 6.28305 16.1217 5.13191 15.3471C3.98076 14.5725 3.08356 13.4715 2.55374 12.1834C2.02393 10.8954 1.88531 9.47798 2.1554 8.11055C2.4255 6.74312 3.09219 5.48705 4.07115 4.50119C5.05012 3.51533 6.2974 2.84395 7.65527 2.57195C9.01314 2.29995 10.4206 2.43955 11.6997 2.97309C12.9788 3.50664 14.072 4.41017 14.8412 5.56942C15.6104 6.72867 16.0209 8.09158 16.0209 9.4858C16.0209 11.3554 15.2834 13.1484 13.9706 14.4704C12.6579 15.7924 10.8774 16.5351 9.0209 16.5351Z" fill="white"/>
</svg>
